<?xml version="1.0" encoding="UTF-8"?>
<!DOCTYPE svg PUBLIC "-//W3C//DTD SVG 1.1//EN" "http://www.w3.org/Graphics/SVG/1.1/DTD/svg11.dtd">
<!-- Creator: CorelDRAW 2018 (64 Bit Versão de avaliação) -->
<svg xmlns="http://www.w3.org/2000/svg" xml:space="preserve" width="1678px" height="1186px" version="1.1" style="shape-rendering:geometricPrecision; text-rendering:geometricPrecision; image-rendering:optimizeQuality; fill-rule:evenodd; clip-rule:evenodd"
viewBox="0 0 1680.7 1188.06"
 xmlns:xlink="http://www.w3.org/1999/xlink">
 <defs>
  <style type="text/css">
   <![CDATA[
    .str0 {stroke:#201E1E;stroke-width:1.68;stroke-miterlimit:22.9256}
    .fil1 {fill:#373435}
    .fil0 {fill:#201E1E;fill-rule:nonzero}
   ]]>
  </style>
 </defs>
 <g id="Camada_x0020_1">
  <metadata id="CorelCorpID_0Corel-Layer"/>
  <path class="fil0 str0" d="M1489.11 963.21l6.71 14.65c8.61,-1.02 16.16,-0.61 23.81,3.02 40.01,18.96 73.1,62.85 58.42,108.14 -8.44,26.06 -32.89,40.65 -60.32,40.09 -27.85,-0.57 -53.99,-13.28 -71.97,-34.54 -16.33,-19.31 -23.85,-55.22 -2.74,-67.54 16.99,-9.92 29.05,1.68 44.99,10.69 2.99,-13.21 2,-26.59 -2.82,-38.55 -6.66,-16.53 -22.73,-26.59 -40.45,-27.63 -19.77,-1.16 -39.23,5.95 -51.34,21.75 -10.13,13.2 -14.39,29.71 -13.46,47.58 4.74,91.77 104.11,144.33 187.08,137.28 49.62,-4.21 90.32,-35.22 105.31,-82.66 28.62,-90.6 -27.38,-180.51 -114.29,-209.64l-9.59 -21.54c-5.18,-1.81 -14.83,0.26 -20.78,1.55 -32.57,-16.42 -78.79,-39.1 -62.17,-82.29 12.62,-32.81 65.88,-35.32 98.72,-5.83 17.35,15.58 26.65,38.5 25.61,62.38l31.1 13.06c-3.59,-34.14 6.42,-76.86 34.62,-97.93l-9.15 -15.42c-32.81,8.4 -32.17,14.39 -59.94,0.99 -29.67,-14.32 -60.74,-22.34 -93.84,-20.57 -55.18,2.96 -100.33,42.32 -108.39,96.9 -8.08,54.74 28.8,105.45 76.62,127.23 3.84,1.75 7.6,3.61 11.18,5.85 6.36,3.97 15.81,10.21 17.08,12.98zm-123.54 110.62c-11.06,-9.44 -13.65,-20.12 -13.66,-32.37l-0.09 -93.38c0,-6.86 7.96,-12.96 11.95,-17.65l-11.7 -19.35 0.12 -76.41c0.02,-10.96 6.59,-21.16 17.15,-23.26 0.86,-3.25 0.75,-9.26 -0.43,-11.77l-29.11 -4.9 -12.62 -1.31c-10.46,-3.47 -21.01,-6.9 -32.67,-9.29l-0.07 12.84c12.39,5.68 20.23,18.72 20.24,33.11l0.05 112.26 -71.42 -147.91c-4.77,-9.87 -11.85,-18.37 -21.33,-23.14 -8.79,-4.42 -19.13,-3.65 -28.66,-5.01l-51.6 -7.34 -0.7 13.18c11.86,2.86 19.54,13.25 19.62,25.47l0.48 76.62 -13.57 17.35c3.61,5.53 13.06,12.26 13.31,19.57 0.89,25.78 0.84,50.45 -0.03,75.76 -0.44,12.58 -8.34,24 -20.48,25.44l-0.82 11.9 36.33 5.33 43.2 8.97c0.68,-4.28 1.02,-9.72 0.62,-13.16 -7.58,-3.68 -12.31,-8.36 -15.87,-15.3 -2.51,-7.39 -4.45,-14.67 -4.42,-22.79l0.43 -117.53 81.33 167.75c9.65,19.91 26.48,29.58 46.13,37.22l31.05 12.08 7.24 -12.98zm-330 -97.52l-0.2 -89.15c7.29,0.02 13.19,0.31 19.45,1.42 12.06,2.14 18.38,13.01 18.18,25.36l17.5 -4.34 -0.15 -69.24c-1.44,-4.51 -12.4,-9.83 -15.74,-4.97 -2.58,3.77 -3.29,21.13 -22.73,19.72l-16.58 -1.21 0.07 -72.87c36.68,0.63 59.53,7.15 70.7,43.55 6.84,0.78 11.87,1.93 20.06,4.36 0.58,-21.2 -1.97,-61.52 -13.59,-81.5 -25.74,10.78 -14.15,5.33 -27.73,4.21l-134.6 -11.1 -3 11.24c14.79,4.05 18.79,22.7 18.72,36.59l-0.28 64.93 -13.24 16.48c4.87,6.48 13.37,12.03 13.45,20.37 0.25,26.46 0.51,51.84 -0.57,77.59 -0.47,11.19 -6.65,20.99 -16.62,25.25l0.29 12.02c33.9,0.5 65.83,3.91 99.55,7.26l44.48 4.41c8.21,0.82 16.57,10.94 20.54,8.03 0.93,-0.67 2.62,-3.31 2.88,-4.43l16.4 -69.15 -15.97 -7.46 -15.82 18.53c-15.1,17.68 -43.16,18.53 -65.45,14.1zm-36.91 53.35c0.19,-0.95 -2.74,-3.3 -3.37,-2.71 -10.01,9.26 -27.97,7.58 -38.43,-1.98 -11.41,-10.42 -20.38,-22.4 -27.09,-36.43l-27.46 -57.36c-1.79,-3.74 -2.54,-6.47 -3.92,-10.27 -8.31,-22.79 -18.41,-44.35 -28.84,-65.97 -5.15,-10.68 -12.45,-18.66 -23.71,-23l44.25 -53.88c8.76,-10.66 27.35,-25.62 43.1,-24.02l-1.97 -14.48 -82.45 -0.11 -3.47 12.13c8.08,0.25 14.75,5.66 12.21,12.86 -2.98,8.44 -9.86,14.65 -15.47,21.51l-51.6 63.13 -0.17 -62.1c-0.02,-9.27 2.86,-17.5 5.81,-26.31 3.79,-3.82 8.08,-6.75 12.85,-9.82 1.68,-2.22 1.18,-8.92 -0.43,-11.97l-49.7 3.02 -57.81 1.13 -1.28 12.88c19.36,-0.43 21.22,23.61 21.1,37.39l-0.53 58.89c-0.97,6.99 -10.18,14.54 -13.8,20.25 3.47,5.52 13.53,11.13 13.57,18.16l0.37 66.68c0.07,13.56 -4.13,30.39 -18.94,35.28l-0.77 12.56 20.93 -1.19c28.17,-1.6 56.36,-3.87 85.29,-3.26 2.2,-0.73 3.17,-6.16 3.01,-9.21 -0.27,-4.97 -19.09,-4.45 -19.22,-34.18l-0.28 -61.87 11.16 -13.64 20.31 50.57 18.03 42.8c5.34,12.68 12.08,24.38 19.23,36.18 10.86,17.9 24.82,33.7 43.92,43.18 37.11,18.42 89.9,3.03 95.57,-24.84zm-757.42 48.14c-14.01,12.41 -31.69,18.49 -50.36,20.71l0.1 -150.61c4.8,-10.2 10.79,-18.76 17.91,-27.05 -6.69,-6.93 -13.94,-15.4 -18.18,-24.69l0.29 -137.84c30.1,-7.28 55.64,0.88 69.26,29.33 15.57,32.52 14.5,69.81 14.22,105.4l-16.85 24.14c4.7,6.29 14.55,12.48 15.67,20.89 5.38,40.35 1.16,110.3 -32.06,139.72zm129.51 -193.62c-0.34,-32.05 -3.02,-62.42 -15.02,-91.89 -22.92,-56.29 -71.54,-84.03 -131.84,-81.24 -27.43,1.27 -54.32,4.73 -80.77,11.01 -6.88,1.63 -12.13,2.39 -19.36,2.8l-75.34 4.33c-1.43,16.82 -7.43,31.3 -18.87,43.31 17.63,15.75 14.04,-8.16 37.18,-13.99 9.92,-2.5 19.92,0.26 27.55,7.63 4.99,4.83 10.34,14.77 10.34,24.13l0.01 114.08c-3.52,11.87 -13.51,22.61 -21.24,31.19 12.05,12.58 21.52,17.24 21.52,35.92l-0.02 111.3c0,14.59 -2.07,29.15 -7.55,41.82 -8.83,20.39 -28.73,31.18 -50.15,27.19 -11.39,-2.13 -19.76,-10.23 -22.27,-20.39 -2.63,-10.61 0.57,-21.29 9.29,-27.94 8.54,-6.52 18.31,-6.71 25.99,2.57 2.85,-4.1 4.87,-9.62 4.1,-13.86 -1.64,-9.07 -24.66,-16.18 -45.03,-2.24 -14.28,9.77 -19.58,26.88 -18.23,43.96 1.58,19.97 12.99,36.1 32.34,42.74 38.4,13.19 81.7,-1.53 115.87,-20.25 2.8,0.37 8.12,1.44 10.73,0.96l40.36 -7.39c65.47,-11.99 123.64,-44.07 149.97,-107.94 15.65,-37.95 21.43,-77.75 21.16,-118.92 3.02,-6.58 9.24,-13.05 14.45,-18.5 -4.24,-6.25 -15.08,-12.15 -15.17,-20.39zm121.49 141.97l0.14 -12.65c-15.22,-0.88 -20.37,-18.72 -20.38,-30.72l-0.05 -72.06c1.79,-4.53 8.12,-11.36 11.32,-15.49l-12.01 -14.43 0.5 -74.83c0.07,-11.05 6.68,-21 15.67,-25.41l-0.94 -12.7 -49.99 10.11 -54.85 12.49 -0.13 11.83c11.35,-1.42 20.54,6.96 20.64,18.37l0.58 68.5 -12.86 17.3c4.41,4.07 9.77,9.55 13.14,14.53l-0.44 83.65c-0.07,13.71 -9.2,24.83 -21.37,28.59 -0.2,5.55 0,10.37 0.91,14.43 38.03,-9.57 73.05,-16.74 110.12,-21.51zm86.55 -126.79c0.76,-6.39 8.66,-12.6 11.78,-17.32 -4.57,-4.54 -10.41,-10.36 -13.59,-15.68 -1.01,-22.21 2.29,-44.32 12.96,-63.13 11.81,-20.8 38.11,-26.86 55.95,-11.53 11.24,9.64 13.25,23.95 14.87,38.43l25.32 -10.32c-3.85,-16.58 -4.35,-45.72 1.84,-63.59 -1.1,-4.01 -5.99,-10.05 -9.51,-11.15 -6.39,4.15 -12.31,7.92 -18.94,9.84 -27.36,-11.36 -56.23,-11.41 -84.06,0.05 -49.82,20.5 -75.86,75.12 -78.49,126.86l-10.37 12.7c4.06,4.13 10.21,8.91 10.99,13.27 0.99,62.24 38.11,113.71 103.7,112.59 47.44,-0.8 87.64,-27.75 88.87,-76.37l-18.43 -7.05c-1.76,3.3 -3.89,7.56 -5.69,11.76 -8.57,19.89 -27.9,33.85 -50.18,31.79 -32.75,-3.03 -40.2,-54.31 -37.02,-81.15z"/>
  <path class="fil0" d="M1166.61 1147.37c3.39,-24.61 3.54,-30.79 3.54,-32.92 5.89,0.81 8.84,1.23 14.73,2.07 -3.32,23.17 -4.98,34.75 -8.31,57.91 1.65,0.24 2.48,0.36 4.13,0.6 15.43,2.24 28,0.84 30.43,-0.23 -0.84,5.3 -1.26,7.96 -2.1,13.26 -19.18,-3.04 -28.78,-4.46 -48.01,-7.09 0.72,-3.1 2.22,-9.09 5.59,-33.6zm-31.72 1.26c-2.81,-10.32 -4.23,-15.48 -7.13,-25.8 -5.13,9.36 -7.68,14.04 -12.73,23.42 7.95,0.92 11.92,1.4 19.86,2.38zm2.41 9c-10.65,-1.34 -15.98,-1.97 -26.64,-3.19 -4.08,7.6 -6.1,11.41 -10.13,19.03 -3.72,-0.41 -5.57,-0.61 -9.29,-1.01 11.5,-22.07 17.36,-33.08 29.31,-55.02 1.51,-2.72 1.7,-6.08 0.86,-9.17 6.82,0.8 10.23,1.21 17.04,2.05 7.81,28.02 11.55,42.05 18.73,70.12 -5.73,-0.77 -8.6,-1.15 -14.34,-1.89 -2.19,-8.37 -3.29,-12.56 -5.54,-20.92zm-85.24 -24.64c4.63,0.41 6.95,0.62 11.59,1.05 9.83,0.92 13.69,-2.34 14.42,-9.69 0.73,-7.35 -2.45,-11.35 -12.37,-12.27 -4.69,-0.44 -7.02,-0.65 -11.7,-1.06 -0.78,8.79 -1.17,13.18 -1.94,21.97zm-13.76 0.27c2.04,-24.76 1.85,-30.93 1.73,-33.06 10.23,0.84 15.34,1.29 25.57,2.24 21.81,2.02 28.53,10.15 27.29,21.88 -1.04,9.92 -7.14,17.44 -21.73,18.43 6.74,11.72 10.06,17.59 16.61,29.34 -5.75,-0.6 -8.62,-0.89 -14.37,-1.46 -6.54,-11.44 -9.85,-17.15 -16.57,-28.55 -2.21,-0.19 -3.32,-0.29 -5.53,-0.49 -0.95,10.7 -1.42,16.05 -2.36,26.75 -5.76,-0.51 -8.64,-0.75 -14.4,-1.23 0.55,-3.12 1.72,-9.19 3.76,-33.85zm-64.04 -15.26c0.41,-7.38 1.22,-16.84 0.24,-22.37 5.93,0.32 8.9,0.49 14.83,0.85 -1.12,18.35 -1.67,27.52 -2.79,45.86 -0.4,6.7 7.72,13.17 12.73,13.5 5.02,0.33 14.7,-4.94 15.19,-11.63 1.33,-18.29 2,-27.44 3.33,-45.73 5.92,0.43 8.89,0.66 14.81,1.13 -1.71,5.35 -2.05,14.75 -2.63,22.11 -0.74,9.41 -1.1,14.11 -1.85,23.52 -0.14,1.91 -8.07,21.6 -29.29,20.18 -21.32,-1.42 -25.97,-21.95 -25.86,-23.86 0.51,-9.43 0.77,-14.14 1.29,-23.56zm-41.29 8.93c0.45,-11.89 0.54,-19.46 0.53,-24.46 -1.54,-0.05 -2.31,-0.08 -3.85,-0.14 -7.79,-0.28 -16.86,3 -18.28,4.21 0.16,-5.36 0.23,-8.05 0.39,-13.42 23.12,0.66 34.67,1.13 57.77,2.34 -0.28,5.36 -0.42,8.05 -0.7,13.41 -1.51,-1.33 -10.29,-5.33 -18.08,-5.68 -1.46,-0.07 -2.19,-0.1 -3.65,-0.16 -0.41,4.97 -0.93,12.53 -1.45,24.42 -1.07,24.72 -0.65,30.88 -0.5,34.05 -5.77,-0.25 -8.66,-0.37 -14.43,-0.58 0.41,-3.15 1.31,-9.26 2.25,-33.99zm-66.39 -1.58c0.24,-24.84 -0.39,-30.98 -0.67,-33.1 5.94,0.06 8.91,0.1 14.85,0.19 -0.36,23.4 -0.55,35.1 -0.91,58.5 1.66,0.02 2.49,0.04 4.15,0.07 15.55,0.27 27.82,-2.72 30.09,-4.09 -0.17,5.37 -0.25,8.05 -0.41,13.42 -19.35,-0.58 -29.03,-0.77 -48.4,-0.95 0.32,-3.16 1.06,-9.29 1.3,-34.04zm-64.94 -10.58c-0.13,-7.38 0.01,-16.89 -1.38,-22.33 5.94,-0.11 8.91,-0.15 14.85,-0.22 0.22,18.38 0.32,27.56 0.54,45.94 0.08,6.71 8.65,12.57 13.67,12.54 5.02,-0.03 14.3,-5.99 14.3,-12.71 0,-18.33 0,-27.5 0,-45.84 5.94,0 8.91,0.01 14.85,0.05 -1.32,5.46 -0.98,14.86 -1.02,22.24 -0.06,9.44 -0.09,14.16 -0.14,23.6 -0.01,1.91 -6.48,22.12 -27.74,22.25 -21.35,0.13 -27.48,-20.01 -27.51,-21.93 -0.17,-9.44 -0.25,-14.15 -0.42,-23.59zm-7.02 40.52c-5.13,3.56 -12.58,5.75 -20.36,5.98 -21.45,0.64 -35.11,-14.15 -35.95,-33.22 -0.85,-19.06 11.82,-35.16 35.09,-35.84 6.83,-0.2 14.49,0.96 19.9,4.3 0.12,5.79 0.18,8.69 0.3,14.48 -4.11,-3.75 -11.84,-9.43 -21.01,-9.16 -9.27,0.27 -21.33,7.54 -20.72,23.26 0.61,15.81 13.33,27.39 29.45,26.97 4.16,-0.11 7.6,-1.45 13.06,-3.87 0.1,2.84 0.15,4.26 0.24,7.1zm-110.41 0.78c1.06,-0.08 2.1,-0.34 3.14,-0.79 8.94,-3.96 8.38,-19.81 3.88,-29.96 -3.96,-8.95 -13.66,-18.8 -22.03,-18.2 -1.08,0.08 -2.15,0.36 -3.2,0.82 -9.1,4.04 -8.25,19.91 -3.64,29.99 4.07,8.91 13.65,18.69 21.85,18.14zm-9.88 -58.93c17.01,-1.2 31.64,13.45 32.74,32.5 1.1,19.06 -11.37,35.23 -27.88,36.39 -16.52,1.16 -31.13,-13.09 -32.72,-32.11 -1.58,-19.02 10.86,-35.58 27.86,-36.78zm-72.53 45.75c0.82,8.01 1.23,12.02 2.06,20.03 4.46,-0.46 6.69,-0.68 11.16,-1.12 10.2,-0.99 13.46,-4.65 12.84,-11.33 -0.86,-9.36 -8.49,-9.33 -16.16,-8.58 -3.96,0.39 -5.94,0.59 -9.9,1zm-0.88 -8.59c4.09,-0.42 6.13,-0.63 10.22,-1.03 7.7,-0.76 13.93,-2.48 13.11,-11.36 -0.62,-6.69 -4.46,-9.72 -14.39,-8.75 -4.4,0.43 -6.6,0.65 -11,1.1 0.82,8.02 1.24,12.02 2.06,20.04zm-13.27 4.78c-2.68,-24.7 -4.03,-30.73 -4.56,-32.79 9.94,-1.09 14.91,-1.6 24.85,-2.58 21.8,-2.15 29.9,4.18 30.87,15.45 0.54,6.31 -1.33,12.05 -6.84,16.2 6.84,2.95 9.93,8.38 10.48,14.77 0.94,11 -5.98,18.24 -27.74,20.38 -9.74,0.95 -14.61,1.46 -24.34,2.52 -0.06,-3.18 -0.05,-9.35 -2.72,-33.95zm-55.56 6.69c-3.26,-24.63 -4.76,-30.62 -5.33,-32.68 19.56,-2.59 29.34,-3.79 48.93,-5.99 0.6,5.34 0.9,8.01 1.5,13.35 -2.42,-1.18 -15.17,-3.13 -30.96,-1.16 -1.45,0.18 -2.18,0.27 -3.63,0.45 0.88,6.97 1.33,10.45 2.21,17.42 11.29,-1.43 16.94,-2.11 28.24,-3.4 0.39,3.43 0.59,5.14 0.98,8.57 -11.26,1.29 -16.89,1.97 -28.14,3.39 1.19,9.4 1.79,14.1 2.97,23.51 1.43,-0.19 2.14,-0.27 3.56,-0.45 15.46,-1.93 27.19,-6.62 29.25,-8.3 0.6,5.34 0.9,8.01 1.5,13.35 -19.05,2.13 -28.56,3.29 -47.56,5.82 -0.13,-3.17 -0.27,-9.35 -3.52,-33.88zm-9.39 -13.07c-3.61,-3.18 -16.62,-7.78 -25.9,-7.68 -1.6,0.04 -3.08,0.16 -4.64,0.4 -5.29,0.78 -9.69,2.81 -9.07,6.89 0.6,3.88 5.53,8.4 25.34,13.32 4,0.98 17.73,4.61 19.61,18.49 1.93,14.25 -11.34,19.07 -21.45,20.54 -11.07,1.61 -23.63,-0.03 -28.57,-2.16 -0.89,-5.69 -1.34,-8.53 -2.24,-14.21 4.83,4.38 23.92,8.74 30.63,7.77 4.5,-0.66 8.6,-3.21 8.11,-7.65 -0.59,-5.21 -6.88,-8.24 -18.11,-10.95 -15.34,-3.7 -24.77,-8.43 -26.63,-20.17 -2.55,-16.11 19.19,-19.84 22.62,-20.35 10.03,-1.47 23.14,-0.11 28.36,1.51 0.78,5.7 1.17,8.55 1.94,14.25z"/>
  <path class="fil1" d="M817.52 0c175.91,0 318.52,142.61 318.52,318.52 0,175.91 -142.61,318.52 -318.52,318.52 -175.91,0 -318.52,-142.61 -318.52,-318.52 0,-175.91 142.61,-318.52 318.52,-318.52zm202.36 116.16c-51.79,-51.78 -123.33,-83.81 -202.36,-83.81 -79.03,0 -150.57,32.03 -202.36,83.81 -51.78,51.79 -83.81,123.33 -83.81,202.36 0,79.03 32.03,150.57 83.81,202.36 51.79,51.78 123.33,83.81 202.36,83.81 79.03,0 150.57,-32.03 202.36,-83.81 51.78,-51.79 83.82,-123.33 83.82,-202.36 0,-79.03 -32.04,-150.57 -83.82,-202.36zm-202.36 -67.45c150.34,0 272.22,120.8 272.22,269.81 0,149.01 -121.88,269.81 -272.22,269.81 -150.34,0 -272.22,-120.8 -272.22,-269.81 0,-149.01 121.88,-269.81 272.22,-269.81zm143.58 185.7c-0.14,-23.15 -1.25,-44.25 -6.19,-61.41 -4.4,-15.28 -11.11,-24 -19.53,-26.68 -4.81,-3.86 -10.07,-7.05 -15.72,-9.67 -26.75,-19.79 -63.59,-30.32 -106.11,-30.79 -28.48,-0.31 -56.39,0.99 -83.85,4.36l-39.68 4.29 0 109.17 -0.28 -0.02 0.01 17.16c-3.66,8.46 -14.03,15.81 -22.05,21.69 12.16,9.4 21.72,13.34 22.24,26.02l0.08 0 0 0.91c0,0.04 0.01,0.07 0.01,0.12l-0.01 45.44 0 94.18 22.1 -0.86 0 -60.9 0.01 -45.44c0,-0.05 -0.01,-0.08 -0.01,-0.12l0 -0.9 -0.08 0c-0.48,-12.62 -9.31,-15.49 -20.55,-23.55 7.41,-6.77 16.99,-15.27 20.38,-24.14l-0.01 -17.15 0.26 -0.02 0 -109.16 36.67 -8.71c25.38,-6.42 51.18,-10.82 77.5,-13.67 24.64,-2.67 47.2,-1.11 66.73,4.54 -11.91,-1.47 -24.83,-1.02 -38.55,1.44 -21.55,3.87 -42.68,9.26 -63.45,16.66l-30.03 10.12 0 109.16 -0.21 0.02 0 17.17c-2.77,8.99 -10.61,17.86 -16.68,24.92 9.2,7.62 16.43,10.15 16.82,22.75l0.07 0 0 0.9c0,0.04 0.01,0.07 0.01,0.12l-0.01 45.44 0 94.18 43.27 -10.6 3.68 -1.13 0 -43.85 0.01 -45.45c0,-0.04 -0.01,-0.07 -0.01,-0.12l0 -0.9 -0.05 0.02c-0.31,-12.54 -6.01,-13.8 -13.25,-19.81 4.78,-8.13 10.96,-18.37 13.13,-27.84l0 -17.16 0.17 -0.07 0 -109.16 23.64 -15.37c16.36,-11.02 32.99,-20.11 49.96,-27.74 16.65,-7.49 31.8,-9.87 44.79,-7.2 -7.68,1.13 -16.35,6.18 -25.7,14.96 -11.3,10.6 -22.36,22.6 -33.26,36.49l-15.73 19.51 0 109.16 -0.11 0.1 0 17.16c-1.45,9.85 -5.56,21.18 -8.75,30.13 4.83,4.74 8.62,5.01 8.82,17.5l0.04 -0.03 0 0.9c0,0.04 0,0.07 0,0.12l0 45.45 0 94.17 22.68 -24.13 16.61 -19.61c26.96,-31.82 50.91,-75.64 61.75,-131.3 6.44,-33.07 8.83,-64 8.71,-93.79 1.24,-5.85 3.81,-12.74 5.95,-18.54 -1.74,-3.03 -6.21,-3.5 -6.24,-9.44zm-44.8 140.78c-5,13.26 -11.32,25.15 -17.99,35.59l0.04 -76.09c1.71,-7.55 3.85,-14.86 6.4,-22.6 -2.4,-0.16 -4.98,-0.81 -6.5,-3.38l0.11 -69.75c10.75,-18.69 19.87,-27.33 24.74,-19.76 5.56,8.64 5.17,28.01 5.08,46.12l-6.02 20.6c1.67,0.83 5.19,-0.97 5.59,2.72 1.93,17.69 0.42,55.11 -11.45,86.55z"/>
 </g>
</svg>
