<?xml version="1.0" encoding="UTF-8"?>
<!DOCTYPE svg PUBLIC "-//W3C//DTD SVG 1.1//EN" "http://www.w3.org/Graphics/SVG/1.1/DTD/svg11.dtd">
<!-- Creator: CorelDRAW 2018 (64 Bit Versão de avaliação) -->
<svg xmlns="http://www.w3.org/2000/svg" xml:space="preserve" width="896px" height="896px" version="1.1" style="shape-rendering:geometricPrecision; text-rendering:geometricPrecision; image-rendering:optimizeQuality; fill-rule:evenodd; clip-rule:evenodd"
viewBox="0 0 352.53 352.53"
 xmlns:xlink="http://www.w3.org/1999/xlink">
 <defs>
  <style type="text/css">
   <![CDATA[
    .fil0 {fill:#201E1E}
   ]]>
  </style>
 </defs>
 <g id="Camada_x0020_1">
  <metadata id="CorelCorpID_0Corel-Layer"/>
  <path class="fil0" d="M176.27 0c97.35,0 176.26,78.92 176.26,176.27 0,97.35 -78.91,176.26 -176.26,176.26 -97.35,0 -176.27,-78.91 -176.27,-176.26 0,-97.35 78.92,-176.27 176.27,-176.27zm111.98 64.28c-28.66,-28.65 -68.25,-46.38 -111.98,-46.38 -43.74,0 -83.33,17.73 -111.99,46.38 -28.65,28.66 -46.38,68.25 -46.38,111.99 0,43.73 17.73,83.32 46.38,111.98 28.66,28.66 68.25,46.38 111.99,46.38 43.73,0 83.32,-17.72 111.98,-46.38 28.66,-28.66 46.38,-68.25 46.38,-111.98 0,-43.74 -17.72,-83.33 -46.38,-111.99zm-111.98 -37.33c83.19,0 150.64,66.85 150.64,149.32 0,82.46 -67.45,149.31 -150.64,149.31 -83.2,0 -150.65,-66.85 -150.65,-149.31 0,-82.47 67.45,-149.32 150.65,-149.32zm79.45 102.77c-0.08,-12.81 -0.69,-24.49 -3.42,-33.98 -2.44,-8.46 -6.15,-13.28 -10.81,-14.77 -2.66,-2.13 -5.57,-3.9 -8.7,-5.35 -14.81,-10.95 -35.19,-16.78 -58.72,-17.04 -15.76,-0.17 -31.21,0.55 -46.4,2.41l-21.96 2.38 0 60.41 -0.16 -0.01 0.01 9.5c-2.03,4.68 -7.76,8.75 -12.2,12 6.72,5.21 12.01,7.38 12.3,14.4l0.05 0 0 0.5c0,0.03 0.01,0.04 0.01,0.07l-0.01 25.15 0 52.11 12.23 -0.47 0 -33.7 0.01 -25.15c0,-0.02 -0.01,-0.04 -0.01,-0.07l0 -0.5 -0.05 0.01c-0.26,-6.99 -5.15,-8.58 -11.37,-13.04 4.11,-3.74 9.41,-8.45 11.28,-13.35l0 -9.5 0.14 -0.01 0 -60.41 20.29 -4.81c14.05,-3.56 28.32,-5.99 42.89,-7.57 13.64,-1.48 26.12,-0.61 36.92,2.51 -6.58,-0.81 -13.74,-0.56 -21.33,0.8 -11.92,2.14 -23.61,5.13 -35.11,9.22l-16.62 5.6 0 60.41 -0.12 0.01 0.01 9.5c-1.54,4.97 -5.88,9.88 -9.24,13.79 5.1,4.22 9.1,5.62 9.32,12.59l0.03 0 0 0.5c0,0.02 0.01,0.04 0.01,0.06l-0.01 25.15 0 52.12 23.95 -5.87 2.03 -0.62 0 -24.27 0.01 -25.15c0,-0.02 -0.01,-0.04 -0.01,-0.06l0 -0.5 -0.03 0.01c-0.17,-6.94 -3.32,-7.64 -7.33,-10.97 2.65,-4.49 6.07,-10.16 7.27,-15.4l0 -9.5 0.09 -0.04 0 -60.4 13.09 -8.51c9.05,-6.1 18.25,-11.13 27.64,-15.35 9.22,-4.15 17.6,-5.46 24.79,-3.99 -4.25,0.63 -9.05,3.42 -14.22,8.28 -6.25,5.87 -12.38,12.51 -18.41,20.2l-8.7 10.79 0 60.41 -0.06 0.05 0 9.5c-0.81,5.45 -3.08,11.72 -4.84,16.68 2.66,2.62 4.76,2.77 4.88,9.68l0.02 -0.02 0 0.5c0,0.03 0,0.04 0,0.07l0 25.15 0 52.11 12.55 -13.35 9.19 -10.85c14.92,-17.61 28.17,-41.86 34.17,-72.66 3.57,-18.3 4.89,-35.42 4.82,-51.91 0.69,-3.23 2.11,-7.05 3.3,-10.25 -0.97,-1.68 -3.44,-1.94 -3.46,-5.23zm-24.79 77.91c-2.77,7.33 -6.26,13.91 -9.96,19.69l0.02 -42.11c0.95,-4.17 2.14,-8.22 3.55,-12.5 -1.33,-0.09 -2.76,-0.45 -3.6,-1.87l0.06 -38.6c5.95,-10.35 11,-15.12 13.69,-10.94 3.08,4.79 2.87,15.51 2.81,25.52l-3.33 11.4c0.93,0.46 2.88,-0.53 3.1,1.51 1.06,9.79 0.23,30.5 -6.34,47.9z"/>
 </g>
</svg>
