<?xml version="1.0" encoding="UTF-8"?>
<!DOCTYPE svg PUBLIC "-//W3C//DTD SVG 1.1//EN" "http://www.w3.org/Graphics/SVG/1.1/DTD/svg11.dtd">
<!-- Creator: CorelDRAW 2018 (64 Bit Versão de avaliação) -->
<svg xmlns="http://www.w3.org/2000/svg" xml:space="preserve" width="5.91961E+06px" height="4.18394E+06px" version="1.1" style="shape-rendering:geometricPrecision; text-rendering:geometricPrecision; image-rendering:optimizeQuality; fill-rule:evenodd; clip-rule:evenodd"
viewBox="0 0 5929125.39 4191216.26"
 xmlns:xlink="http://www.w3.org/1999/xlink">
 <defs>
  <style type="text/css">
   <![CDATA[
    .str0 {stroke:#FEFEFE;stroke-width:5927.91;stroke-miterlimit:22.9256}
    .fil1 {fill:#FEFEFE}
    .fil0 {fill:#FEFEFE;fill-rule:nonzero}
   ]]>
  </style>
 </defs>
 <g id="Camada_x0020_1">
  <metadata id="CorelCorpID_0Corel-Layer"/>
  <path class="fil0 str0" d="M5253251.75 3397978.89l23673.11 51706.19c30377.58,-3595.28 56996.86,-2154.79 83995.52,10643.56 141137.62,66878.69 257861.13,221733.48 206092.69,381493.63 -29790.71,91921.14 -116024.02,143387.25 -212794.19,141410.29 -98266.97,-2006.59 -190481.54,-46833.45 -253907.21,-121845.22 -57583.72,-68123.55 -84120.01,-194779.28 -9641.75,-238254.57 59913.39,-34977.63 102469.86,5919.02 158693.12,37695.58 10560.57,-46584.48 7069.04,-93794.36 -9944.07,-135983.3 -23504.16,-58303.96 -80177.95,-93791.39 -142705.54,-97472.62 -69732.97,-4099.15 -138398.92,20996.66 -181121.37,76727.9 -35706.77,46581.52 -50742.91,104802.49 -47482.56,167851.74 16731.53,323755.78 367275.53,509163.03 660004.63,484298.41 175048.22,-14867.2 318622.2,-124249 371487.31,-291590.94 100964.16,-319635.88 -96571.59,-636823.53 -403180.89,-739586.82l-33824.65 -75975.06c-18275.75,-6375.47 -52331.59,901.04 -73307.5,5480.35 -114903.65,-57936.43 -277956.75,-137948.39 -219338.61,-290316.43 44521.57,-115748.38 232418.54,-124616.53 348261.76,-20566.89 61211.6,54969.51 94013.69,135835.1 90353.21,220049.96l109725.62 46080.61c-12662.02,-120434.39 22650.54,-271148.54 122117.91,-345460.83l-32265.61 -54424.14c-115739.49,29663.26 -113501.7,50775.52 -211478.2,3491.54 -104645.4,-50493.94 -214276.17,-78787.85 -331041.18,-72545.76 -194651.82,10427.19 -353919.95,149294.41 -382350.21,341844.79 -28504.35,193113.53 101589.56,372008.97 270271.21,448840.61 13551.21,6170.96 26817.87,12736.12 39450.24,20620.24 22440.11,14010.61 55784.6,36020.94 60257.21,45787.18zm-435831.81 390246.18c-39002.69,-33282.25 -48140.56,-70965.98 -48182.05,-114192.3l-305.29 -329411c-29.64,-24215.52 28065.69,-45724.94 42129.66,-62287.52l-41270.11 -68256.92 438.66 -269559.86c62.24,-38667.76 23234.44,-74638.32 60509.14,-82039.31 3011.38,-11461.62 2634.96,-32656.86 -1547.18,-41513.16l-102689.19 -17294.68 -44512.68 -4608.95c-36880.49,-12255.95 -74125.55,-24354.82 -115238.57,-32802.09l-248.97 45315.91c43715.37,20036.34 71372.04,66030.99 71392.78,116797.62l177.84 396017 -251942.11 -521783.55c-16823.41,-34829.43 -41803.62,-64818.73 -75263.71,-81642.14 -30991.11,-15590.4 -67492.22,-12860.6 -101088.65,-17650.35l-182031.3 -25899.04 -2489.73 46474.81c41845.12,10101.16 68938.64,46771.22 69211.32,89881.94l1704.27 270283.07 -47870.84 61220.49c12727.23,19499.86 46080.61,43247.07 46969.8,69021.62 3115.12,90957.85 2949.14,177964.76 -136.34,267280.58 -1526.44,44355.59 -29411.33,84662.41 -72231.59,89724.85l-2883.92 41990.35 128149.56 18791.47 152400.64 31640.22c2383.02,-15098.38 3595.28,-34266.28 2172.58,-46406.64 -26725.98,-12996.94 -43413.05,-29485.43 -55971.33,-53982.51 -8865.19,-26079.85 -15706,-51738.8 -15599.29,-80400.25l1526.43 -414618.79 286896.03 591780.31c34043.99,70242.77 93435.73,104372.72 162759.67,131326.93l109530 42600.92 25534.47 -45799.03zm-1164161.53 -344017.38l-708.39 -314511.2c25709.35,82.99 46540.03,1096.66 68612.6,5017.98 42565.36,7549.19 64848.37,45890.91 64128.13,89452.16l61762.9 -15308.83 -533.51 -244244.72c-5100.97,-15925.33 -43747.98,-34693.09 -55520.81,-17546.61 -9128.98,13311.12 -11606.85,74543.47 -80189.81,69566.99l-58490.68 -4256.24 251.93 -257087.54c129394.42,2217.04 210002.15,25232.15 249390.15,153633.65 24132.52,2750.55 41895.5,6837.85 70788.14,15400.71 2018.45,-74801.33 -6953.44,-217047.46 -47962.73,-287533.28 -90780.01,38039.4 -49898.18,18812.22 -97819.41,14858.31l-474846.35 -39147.92 -10569.46 39639.93c52174.5,14283.3 66271.07,80103.85 66051.74,129092.1l-1004.78 229051.49 -46697.12 58126.12c17179.09,22878.77 47147.64,42464.59 47429.21,71867.02 901.05,93361.62 1819.87,182899.74 -2006.59,273721.25 -1662.78,39470.99 -23453.78,74051.46 -58618.14,89075.74l1013.67 42399.38c119586.69,1766.52 232222.92,13791.29 351202,25608.57l156905.86 15578.55c28963.76,2875.04 58449.19,38584.77 72471.66,28326.52 3251.46,-2374.13 9232.72,-11689.84 10163.4,-15631.9l57823.8 -243933.5 -56338.86 -26316.96 -55805.34 65361.14c-53241.53,62382.36 -152252.45,65381.88 -230883.21,49741.09zm-130218.4 188211.15c687.63,-3358.16 -9653.61,-11639.45 -11879.54,-9579.5 -35309.59,32674.64 -98655.24,26737.84 -135565.37,-6983.08 -40244.59,-36764.9 -71896.66,-79007.19 -95590.52,-128508.2l-96853.16 -202346.25c-6328.04,-13195.53 -8951.14,-22816.53 -13835.74,-36222.5 -29298.7,-80426.92 -64952.11,-156484.97 -101725.9,-232753.46 -18163.12,-37651.12 -43928.78,-65799.8 -83660.6,-81129.38l156120.41 -190060.66c30908.12,-37612.59 96467.84,-90394.7 152033.11,-84748.36l-6932.69 -51089.7 -290879.59 -397.17 -12244.1 42817.3c28501.39,859.55 52050.02,19962.24 43078.12,45348.51 -10507.22,29769.97 -34796.83,51706.2 -54560.48,75892.07l-182040.2 222705.66 -595.75 -219077.78c-85.95,-32686.49 10068.56,-61742.15 20480.93,-92798.47 13385.22,-13497.85 28516.21,-23809.45 45339.62,-34651.6 5927.91,-7842.62 4161.39,-31462.38 -1517.54,-42233.39l-175317.95 10655.42 -203958.64 3983.55 -4517.07 45443.36c68301.38,-1517.54 74866.54,83272.32 74427.88,131893.04l-1861.36 207743.61c-3420.41,24686.78 -35926.1,51309.03 -48674.07,71437.25 12235.2,19490.96 47713.74,39284.26 47858.98,64065.88l1307.1 235243.19c260.83,47847.13 -14564.87,107206.26 -66795.69,124468.33l-2726.84 44305.2 73829.16 -4205.85c99375.48,-5655.23 198836.93,-13634.19 300888.86,-11500.15 7747.78,-2560.85 11165.22,-21737.64 10602.07,-32496.8 -930.68,-17505.12 -67317.35,-15676.36 -67788.62,-120570.73l-981.07 -218262.69 39346.51 -48128.7 71665.47 178412.31 63606.47 150998.7c18841.87,44729.04 42597.97,85990.26 67847.9,127636.79 38303.19,63144.1 87540.41,118866.46 154928.9,152326.55 130903.07,64984.71 317146.16,10685.05 337141,-87632.3zm-2672002.55 169837.59c-49426.92,43771.69 -111776.67,65195.16 -177671.32,73037.78l376.42 -531300.8c16939,-35979.45 38060.15,-66208.83 63185.59,-95442.32 -23619.76,-24458.56 -49186.83,-54341.15 -64148.88,-87081l1034.42 -486293.15c106162.95,-25661.92 196273.11,3115.12 244339.57,103483.53 54928.01,114705.06 51122.3,246283.92 50150.12,371810.38l-59445.08 85178.14c16574.43,22176.32 51341.63,44008.81 55292.58,73683.93 18966.35,142338.01 4087.29,389113.95 -113113.42,492923.51zm456902.57 -683049.38c-1212.26,-113071.92 -10655.42,-220207.04 -52992.55,-324182.58 -80868.56,-198593.89 -252389.67,-296434.04 -465121.62,-286593.71 -96773.13,4475.57 -191631.55,16687.06 -284942.79,38833.74 -24245.15,5753.03 -42796.54,8417.63 -68286.56,9881.82l-265765.99 15288.08c-5053.55,59317.64 -26213.22,110416.22 -66582.29,152785.96 62186.74,55553.41 49539.54,-28785.93 131152.05,-49355.78 35004.31,-8823.69 70287.23,901.04 97188.08,26915.68 17620.72,17042.74 36483.33,52091.51 36489.26,85124.79l35.56 402445.82c-12424.9,41865.86 -47648.54,79760.03 -74916.93,110030.9 42491.26,44364.48 75903.93,60802.58 75898,126717.97l-71.13 392620.31c-8.89,51495.76 -7285.4,102846.28 -26637.07,147536.8 -31148.2,71938.15 -101340.59,110019.05 -176900.69,95922.48 -40194.2,-7495.85 -69709.26,-36062.45 -78577.42,-71917.41 -9265.32,-37431.79 2021.42,-75094.77 32769.49,-98569.29 30125.64,-22994.36 64602.37,-23673.11 91695.88,9075.63 10068.56,-14481.89 17187.98,-33961 14470.03,-48914.15 -5803.43,-31984.04 -87000.98,-57079.85 -158850.21,-7904.87 -50384.27,34485.62 -69080.9,94828.78 -64314.86,155077.09 5578.16,70462.11 45802,127367.08 114085.59,150809 135443.86,46498.53 288215,-5406.25 408744.23,-71469.85 9881.83,1307.11 28649.59,5092.08 37873.42,3408.55l142358.76 -26065.02c230986.95,-42307.49 436181.56,-155495.01 529083.77,-380814.88 55185.88,-133869.99 75598.64,-274254.76 74635.35,-419491.52 10643.56,-23234.45 32612.4,-46059.87 50994.85,-65287.04 -14982.8,-22031.08 -53200.03,-42870.65 -53514.21,-71908.52zm428587.9 500819.49l480.16 -44616.41c-53700.93,-3106.23 -71864.05,-66060.63 -71896.65,-108397.77l-177.84 -254179.89c6316.19,-16008.32 28640.7,-40078.6 39933.37,-54664.23l-42369.74 -50911.85 1769.48 -263966.88c260.83,-38999.72 23557.51,-74101.84 55289.62,-89630l-3313.7 -44835.75 -176373.12 35677.13 -193481.06 44050.3 -462.37 41732.49c40048.96,-5000.2 72462.77,24580.08 72806.59,64806.87l2039.2 241651.26 -45369.26 61063.4c15569.66,14336.66 34473.76,33691.28 46374.04,51258.64l-1567.93 295094.34c-251.94,48368.78 -32437.53,87590.8 -75391.16,100848.57 -699.5,19573.96 20.75,36587.06 3209.96,50891.11 134154.54,-33732.78 257715.9,-59036.06 388500.41,-75871.33zm305319.98 -447284.53c2667.56,-22552.73 30531.7,-44459.33 41551.69,-61113.79 -16112.06,-15999.43 -36741.19,-36545.57 -47959.76,-55292.58 -3556.75,-78369.94 8082.71,-156351.6 45745.68,-222705.66 41667.28,-73381.6 134433.15,-94754.68 197369.77,-40698.07 39639.94,34035.1 46759.36,84487.54 52447.19,135577.24l89318.78 -36409.23c-13563.05,-58493.65 -15329.57,-161265.83 6502.92,-224338.79 -3859.07,-14135.11 -21112.25,-35454.83 -33554.93,-39325.76 -22543.85,14638.97 -43413.05,27950.1 -66804.59,34716.81 -96521.2,-40069.71 -198383.44,-40235.69 -296546.67,165.98 -175735.86,72347.18 -267615.5,265013.15 -276901.57,447545.36l-36584.1 44815c14324.79,14544.13 36009.09,31412 38792.24,46812.71 3470.79,219549.04 134424.26,401129.82 365808.38,397199.62 167371.58,-2845.4 309199.79,-97902.4 313518.27,-269435.37l-65005.46 -24876.48c-6212.45,11648.34 -13720.15,26675.6 -20098.58,41480.55 -30217.52,70180.53 -98403.31,119441.46 -176989.61,112173.85 -115540.9,-10685.06 -141828.22,-191590.06 -130609.65,-286291.39z"/>
  <path class="fil0" d="M4115558.34 4047663.02c11941.77,-86826.1 12475.29,-108608.21 12454.54,-116124.8 20806.96,2854.29 31201.55,4318.49 51996.66,7297.26 -11731.33,81725.14 -17585.14,122589.18 -29319.44,204302.46 5815.28,838.8 8731.81,1256.72 14547.09,2101.45 54433.04,7904.86 98800.48,2969.88 107372.24,-815.09 -2958.03,18717.37 -4442.97,28074.58 -7412.85,46791.96 -67661.17,-10717.66 -101539.18,-15726.75 -169369.29,-25021.71 2519.36,-10925.14 7830.77,-32049.25 19731.05,-118531.53zm-111913.02 4454.82c-9911.46,-36409.22 -14941.29,-54613.83 -25146.19,-91011.2 -18109.77,33000.68 -27102.41,49530.65 -44930.6,82614.32 28044.95,3242.57 42055.56,4926.09 70076.79,8396.88zm8500.63 31755.82c-37577.03,-4727.51 -56368.5,-6974.19 -93989.98,-11271.92 -14378.15,26829.72 -21530.17,40256.44 -35727.52,67148.4 -13112.54,-1452.34 -19668.8,-2163.69 -32781.34,-3565.64 40579.51,-77877.92 61261.99,-116699.8 103400.54,-194097.56 5323.26,-9588.39 6013.86,-21444.21 3052.87,-32339.71 24049.53,2800.93 36065.41,4244.38 60103.08,7214.26 27541.07,98862.72 40748.46,148351.88 66063.6,247383.55 -20223.07,-2741.66 -30344.98,-4078.4 -50588.79,-6692.61 -7715.17,-29518.03 -11615.74,-44281.49 -19532.46,-73778.77zm-300719.92 -86932.8c16355.1,1452.33 24532.65,2184.43 40884.79,3710.87 34693.1,3242.57 48318.4,-8269.44 50879.26,-34201.08 2563.82,-25919.79 -8645.86,-40016.36 -43653.13,-43279.67 -16512.2,-1547.19 -24760.88,-2288.17 -41270.11,-3752.37 -2741.66,31011.86 -4111.01,46519.28 -6840.81,77522.25zm-48546.62 951.43c7205.37,-87341.83 6556.27,-109120.97 6117.6,-116628.67 36095.05,2969.88 54130.71,4537.81 90193.15,7884.12 76938.35,7143.13 100652.95,35813.47 96292.98,77199.17 -3681.24,34995.42 -25211.41,61513.93 -76677.52,65026.21 23779.81,41323.47 35499.29,62035.58 58618.14,103516.13 -20285.31,-2122.19 -30427.96,-3156.61 -50722.17,-5166.17 -23056.6,-40360.18 -34746.44,-60500.25 -58440.3,-100703.34 -7801.13,-699.49 -11710.58,-1055.17 -19520.61,-1745.77 -3325.55,37745.97 -4997.22,56620.44 -8322.78,94366.41 -20306.06,-1787.27 -30469.46,-2655.71 -50787.37,-4318.49 1923.6,-11040.73 6076.11,-32422.7 13248.88,-119429.6zm-225906.73 -53840.25c1434.55,-26014.63 4318.48,-59409.51 838.8,-78921.23 20931.45,1138.16 31400.14,1745.77 52322.7,3020.27 -3933.17,64715 -5898.27,97066.57 -9831.44,161778.6 -1431.59,23640.5 27229.85,46436.28 44909.85,47607.04 17703.7,1182.62 51863.28,-17410.27 53588.3,-41030.03 4686.02,-64525.3 7036.43,-96782.02 11722.45,-161307.32 20910.7,1517.54 31367.53,2311.88 52269.34,3962.8 -6043.5,18874.47 -7235.01,52041.13 -9274.21,78014.27 -2614.21,33187.4 -3909.46,49782.59 -6523.67,82969.99 -524.62,6743 -28471.75,76194.39 -103350.15,71206.06 -75201.47,-5017.98 -91615.85,-77448.15 -91239.43,-84194.11 1828.76,-33249.65 2738.7,-49865.58 4567.46,-83106.34zm-145675.43 31515.74c1591.64,-41939.97 1914.71,-68674.84 1882.11,-86283.7 -5427,-198.58 -8144.95,-302.32 -13571.95,-492.02 -27478.83,-992.92 -59483.61,10581.32 -64480.84,14849.42 542.4,-18936.71 803.23,-28409.51 1348.6,-47358.08 81556.19,2320.78 122325.39,3974.67 203822.3,8251.66 -995.89,18924.85 -1496.8,28388.76 -2480.83,47313.61 -5332.16,-4694.9 -36311.42,-18821.11 -63781.35,-20054.12 -5145.43,-231.19 -7727.03,-346.78 -12872.46,-566.12 -1452.34,17546.62 -3301.85,44219.25 -5112.82,86150.32 -3764.23,87214.38 -2308.92,108952.03 -1775.41,120140.96 -20359.41,-889.19 -30534.67,-1298.21 -50891.11,-2059.95 1431.59,-11114.83 4620.81,-32665.75 7913.76,-119891.98zm-234205.8 -5572.24c856.58,-87632.29 -1369.35,-109310.66 -2344.49,-116765.01 20955.16,198.59 31420.89,326.04 52376.05,649.11 -1274.5,82560.97 -1923.61,123831.08 -3198.11,206374.26 5853.81,91.88 8782.2,145.24 14647.87,240.08 54853.91,951.43 98109.87,-9579.5 106118.48,-14407.78 -575.01,18933.74 -856.58,28406.54 -1419.73,47343.25 -68289.53,-2048.09 -102440.22,-2717.95 -170738.64,-3367.05 1117.41,-11144.47 3710.88,-32778.38 4558.57,-120066.86zm-229075.2 -37339.9c-459.41,-26047.24 20.75,-59569.57 -4881.63,-78776 20964.05,-376.43 31441.63,-521.66 52393.83,-773.6 764.7,64827.63 1141.12,97241.44 1902.86,162069.07 284.54,23684.96 30510.95,44334.84 48226.51,44231.1 17721.49,-103.74 50440.59,-21121.14 50440.59,-44815 0,-64694.25 8.89,-97033.96 8.89,-161725.25 20955.16,0 31432.75,29.64 52384.94,165.99 -4662.3,19259.78 -3450.04,52426.43 -3607.13,78473.67 -198.58,33294.11 -293.43,49939.68 -492.02,83230.82 -41.49,6766.71 -22855.05,78055.76 -97849.04,78506.28 -75334.85,450.52 -96948.01,-70601.41 -97063.61,-77365.15 -586.86,-33294.11 -877.33,-49927.83 -1464.19,-83221.93zm-24760.88 142945.62c-18118.66,12558.28 -44385.23,20297.17 -71855.16,21112.25 -75660.89,2237.79 -123842.94,-49939.68 -126821.71,-117203.67 -2990.63,-67255.11 41720.63,-124050.42 123801.44,-126436.4 24091.02,-699.49 51119.33,3387.8 70201.27,15172.49 429.78,20430.54 640.22,30647.29 1067.03,51068.94 -14490.78,-13216.27 -41762.13,-33261.5 -74122.59,-32310.07 -32698.36,972.18 -75234.07,26601.5 -73100.03,82048.2 2154.8,55796.46 47032.04,96648.65 103913.3,95142.96 14650.83,-388.28 26788.23,-5092.07 46050.97,-13625.3 343.82,10018.17 521.66,15015.4 865.48,25030.6zm-389531.87 2741.66c3740.51,-251.94 7433.6,-1182.62 11082.23,-2783.15 31545.37,-13969.12 29580.27,-69887.1 13717.18,-105667.97 -13998.76,-31589.83 -48211.69,-66345.17 -77729.72,-64202.23 -3826.47,281.58 -7590.69,1244.86 -11304.52,2875.04 -32108.53,14253.66 -29088.26,70224.99 -12828,105816.16 14354.43,31420.89 48149.45,65927.25 77062.83,63962.15zm-34820.54 -207871.06c59975.63,-4232.53 111619.58,47441.06 115499.4,114663.56 3867.96,67213.61 -40120.1,124251.97 -98370.71,128351.11 -58262.46,4108.05 -109823.43,-46187.31 -115416.41,-113282.36 -5592.98,-67098.01 38312.08,-125505.71 98287.72,-129732.31zm-255884.17 161372.53c2895.78,28273.17 4351.08,42408.27 7258.72,70681.44 15744.53,-1609.43 23619.76,-2403.77 39367.25,-3942.06 35988.35,-3521.18 47479.6,-16405.49 45304.06,-39983.76 -3032.13,-33018.46 -29965.59,-32926.57 -57017.61,-30270.87 -13969.12,1381.2 -20952.2,2080.7 -34912.42,3515.25zm-3115.12 -30291.62c14428.53,-1484.94 21642.8,-2208.15 36074.3,-3627.88 27152.79,-2667.56 49133.48,-8752.56 46246.59,-40090.46 -2184.44,-23590.11 -15756.39,-34287.03 -50763.66,-30854.77 -15528.16,1526.44 -23287.8,2300.03 -38812.99,3897.6 2904.67,28264.28 4359.97,42402.34 7255.76,70675.51zm-46812.71 16856.01c-9452.05,-87131.38 -14221.05,-108388.87 -16061.67,-115677.24 35051.73,-3817.57 52574.63,-5637.44 87656.01,-9087.48 76893.88,-7569.94 105469.37,14742.71 108901.63,54518.99 1911.76,22250.41 -4686.01,42482.37 -24135.48,57142.09 24114.74,10403.48 35039.88,29538.77 36975.34,52115.22 3325.56,38771.5 -21091.51,64314.86 -97869.8,71864.06 -34370.02,3378.9 -51540.21,5166.17 -85877.63,8897.79 -198.59,-11197.82 -165.99,-32988.82 -9588.4,-119773.43zm-196000.42 23607.91c-11503.11,-86879.46 -16773.02,-108021.35 -18791.48,-115268.22 68980.13,-9158.62 103495.39,-13385.22 172602.97,-21133 2110.33,18832.97 3165.5,28252.42 5278.8,47085.39 -8521.37,-4161.39 -53505.32,-11061.48 -109203.96,-4099.15 -5112.82,637.25 -7673.68,963.29 -12798.36,1609.43 3115.12,24574.15 4674.16,36859.75 7780.38,61430.93 39826.67,-5038.72 59756.3,-7445.45 99624.46,-12004.01 1390.1,12098.86 2080.7,18151.26 3470.79,30250.12 -39731.82,4549.67 -59587.35,6941.58 -99268.78,11962.52 4191.03,33166.66 6292.47,49749.99 10486.47,82916.65 5017.98,-637.25 7519.56,-951.43 12537.53,-1579.79 54539.74,-6817.1 95934.34,-23358.93 103193.06,-29274.98 2110.34,18830 3165.51,28252.42 5278.81,47082.42 -67181.01,7528.45 -100735.95,11639.45 -167780.61,20546.14 -459.41,-11197.82 -939.57,-32976.97 -12410.08,-119524.45zm-33125.16 -46089.51c-12745.01,-11242.28 -58618.14,-27449.18 -91375.77,-27102.4 -5625.59,136.34 -10854.01,575.01 -16375.86,1390.09 -18643.27,2759.45 -34150.69,9923.33 -31963.29,24310.36 2089.59,13708.3 19490.97,29633.63 89378.07,47011.3 14105.46,3461.89 62548.34,16248.4 69166.85,65204.04 6808.21,50295.36 -39983.75,67275.86 -75669.77,72471.67 -39044.18,5687.83 -83334.56,-115.6 -100765.58,-7632.19 -3168.47,-20054.12 -4748.26,-30084.14 -7916.72,-50126.4 17042.74,15462.95 84401.58,30854.77 108053.94,27425.47 15883.84,-2311.88 30353.87,-11313.41 28599.21,-26998.66 -2051.06,-18358.74 -24259.98,-29067.51 -63867.31,-38623.3 -54121.82,-13050.3 -87371.47,-29728.47 -93939.59,-71164.56 -9001.53,-56819.02 67684.88,-69984.91 79801.53,-71772.18 35354.05,-5207.67 81633.25,-376.42 100045.34,5323.27 2729.8,20116.36 4099.15,30164.17 6828.95,50283.49z"/>
  <path class="fil1" d="M2884032.04 0c620584.02,0 1123667.97,503083.95 1123667.97,1123667.98 0,620584.02 -503083.95,1123667.97 -1123667.97,1123667.97 -620584.03,0 -1123667.98,-503083.95 -1123667.98,-1123667.97 0,-620584.03 503083.95,-1123667.98 1123667.98,-1123667.98zm713874.51 409793.47c-182689.3,-182689.3 -435081.93,-295684.16 -713874.51,-295684.16 -278792.58,0 -531185.21,112994.86 -713874.51,295684.16 -182689.3,182689.3 -295684.16,435081.93 -295684.16,713874.51 0,278792.58 112994.86,531185.21 295684.16,713874.51 182689.3,182689.3 435081.93,295684.16 713874.51,295684.16 278792.58,0 531185.21,-112994.86 713874.51,-295684.16 182689.3,-182689.3 295684.16,-435081.93 295684.16,-713874.51 0,-278792.58 -112994.86,-531185.21 -295684.16,-713874.51zm-713874.51 -237967.07c530379.01,0 960333.3,426154.5 960333.3,951841.58 0,525684.11 -429954.29,951838.61 -960333.3,951838.61 -530379.02,0 -960333.31,-426154.5 -960333.31,-951838.61 0,-525687.08 429954.29,-951841.58 960333.31,-951841.58zm506513.25 655114.11c-503.88,-81651.04 -4392.59,-156090.77 -21823.61,-216641.41 -15516.3,-53890.63 -39222.01,-84653.52 -68894.17,-94126.32 -16971.6,-13592.7 -35540.78,-24864.62 -55470.42,-34088.45 -94378.25,-69845.6 -224338.79,-106966.17 -374332.7,-108617.1 -100472.15,-1108.52 -198937.71,3482.65 -295814.58,15359.22l-139966.85 15151.74 0 385100.75 -984.03 -41.49 11.85 60529.89c-12902.09,29841.1 -49468.41,55763.85 -77783.07,76508.57 42900.29,33178.51 76621.2,47052.79 78452.93,91793.69l302.32 11.86 0 3189.21c0,157.09 41.5,260.83 41.5,417.92l-41.5 160323.29 0 332223.8 77960.91 -3011.38 0 -214842.28 41.5 -160323.3c0,-148.19 -41.5,-263.79 -41.5,-409.02l0 -3189.22 -281.57 20.75c-1683.53,-44542.32 -32852.48,-54664.22 -72504.27,-83085.59 26162.83,-23880.58 59957.84,-53869.88 71887.76,-85142.57l-11.85 -60532.86 909.93 -62.24 0 -385100.76 129364.79 -30709.54c89535.15,-22647.58 180546.36,-38175.74 273407.07,-48232.44 86932.8,-9422.41 166503.14,-3900.56 235388.42,16017.22 -42002.21,-5195.82 -87599.69,-3586.39 -135992.19,5092.07 -76025.45,13634.19 -150548.17,32674.64 -223843.81,58763.38l-105931.76 35688.98 0 385100.75 -743.95 91.89 11.85 60541.74c-9766.23,31723.22 -37434.75,63010.73 -58858.22,87916.84 32467.17,26883.07 57977.93,35810.5 59359.13,80281.69l231.19 -32.61 0 3189.22c0,148.2 29.64,263.79 29.64,409.03l-29.64 160323.29 0 332235.65 152658.51 -37402.15 12976.19 -3971.7 0 -154700.67 20.75 -160335.15c0,-145.23 -20.75,-251.93 -20.75,-406.06l0 -3180.32 -186.73 74.1c-1087.77,-44240 -21174.49,-48706.68 -46741.57,-69910.81 16876.76,-28649.59 38658.87,-64774.28 46344.4,-98204.73l0 -60529.89 583.9 -240.08 0 -385091.86 83399.77 -54213.71c57717.1,-38898.94 116385.63,-70965.97 176248.63,-97890.54 58721.88,-26414.77 112173.84,-34787.94 158002.51,-25389.24 -27090.54,4004.3 -57666.71,21791 -90664.42,52761.37 -39850.37,37402.14 -78891.59,79751.13 -117319.27,128757.17l-55511.91 68814.14 0 385100.76 -385.32 334.93 0 60529.89c-5112.82,34776.08 -19615.45,74718.34 -30845.88,106317.07 17010.14,16731.52 30383.51,17682.95 31106.71,61724.36l124.49 -103.74 0 3189.22c0,145.23 20.75,248.97 20.75,397.17l-20.75 160335.15 0 332232.69 80011.97 -85142.58 58615.17 -69169.82c95101.46,-112236.08 179586.04,-266830.05 217835.88,-463186.15 22718.72,-116670.16 31127.46,-225782.24 30730.29,-330875.2 4380.72,-20632.09 13423.75,-44951.34 20996.65,-65393.74 -6170.95,-10705.8 -21906.59,-12347.83 -22031.07,-33323.74zm-158046.98 496658.09c-17650.35,46759.36 -39921.51,88699.32 -63467.17,125556.1l133.38 -268439.48c6055.36,-26622.24 13604.55,-52417.55 22576.44,-79718.54 -8438.38,-563.15 -17567.36,-2886.89 -22908.41,-11950.66l364.57 -246043.84c37923.81,-65948 70109.39,-96405.61 87288.48,-69712.23 19615.45,30490.21 18255,98821.23 17911.18,162688.53l-21236.74 72670.26c5919.02,2928.38 18340.95,-3399.66 19751.8,9609.14 6775.6,62403.11 1464.19,194420.63 -40413.53,305340.72z"/>
 </g>
</svg>
