<?xml version="1.0" encoding="UTF-8"?>
<!DOCTYPE svg PUBLIC "-//W3C//DTD SVG 1.1//EN" "http://www.w3.org/Graphics/SVG/1.1/DTD/svg11.dtd">
<!-- Creator: CorelDRAW 2018 (64 Bit Versão de avaliação) -->
<svg xmlns="http://www.w3.org/2000/svg" xml:space="preserve" width="896px" height="896px" version="1.1" style="shape-rendering:geometricPrecision; text-rendering:geometricPrecision; image-rendering:optimizeQuality; fill-rule:evenodd; clip-rule:evenodd"
viewBox="0 0 128.85 128.85"
 xmlns:xlink="http://www.w3.org/1999/xlink">
 <defs>
  <style type="text/css">
   <![CDATA[
    .fil0 {fill:#FEFEFE}
   ]]>
  </style>
 </defs>
 <g id="Camada_x0020_1">
  <metadata id="CorelCorpID_0Corel-Layer"/>
  <path class="fil0" d="M64.42 0c35.59,0 64.43,28.84 64.43,64.42 0,35.59 -28.84,64.43 -64.43,64.43 -35.58,0 -64.42,-28.84 -64.42,-64.43 0,-35.58 28.84,-64.42 64.42,-64.42zm40.93 23.5c-10.47,-10.48 -24.94,-16.96 -40.93,-16.96 -15.98,0 -30.45,6.48 -40.92,16.96 -10.48,10.47 -16.96,24.94 -16.96,40.92 0,15.99 6.48,30.46 16.96,40.93 10.47,10.48 24.94,16.96 40.92,16.96 15.99,0 30.46,-6.48 40.93,-16.96 10.48,-10.47 16.96,-24.94 16.96,-40.93 0,-15.98 -6.48,-30.45 -16.96,-40.92zm-40.93 -13.65c30.41,0 55.07,24.43 55.07,54.57 0,30.14 -24.66,54.58 -55.07,54.58 -30.4,0 -55.06,-24.44 -55.06,-54.58 0,-30.14 24.66,-54.57 55.06,-54.57zm29.05 37.56c-0.03,-4.68 -0.26,-8.95 -1.26,-12.42 -0.89,-3.09 -2.24,-4.85 -3.95,-5.4 -0.97,-0.77 -2.03,-1.42 -3.18,-1.95 -5.41,-4 -12.86,-6.13 -21.46,-6.23 -5.76,-0.06 -11.4,0.2 -16.96,0.88l-8.02 0.87 0 22.08 -0.06 0 0 3.47c-0.74,1.71 -2.84,3.2 -4.46,4.39 2.46,1.9 4.39,2.69 4.5,5.26l0.02 0 0 0.18c0,0.01 0,0.02 0,0.03l0 9.19 0 19.05 4.47 -0.18 0 -12.31 0 -9.2c0,0 0,-0.01 0,-0.02l0 -0.18 -0.02 0c-0.1,-2.56 -1.88,-3.14 -4.16,-4.76 1.5,-1.37 3.44,-3.09 4.12,-4.89l0 -3.47 0.06 0 0 -22.08 7.41 -1.76c5.14,-1.3 10.35,-2.19 15.68,-2.77 4.98,-0.54 9.55,-0.22 13.49,0.92 -2.4,-0.3 -5.02,-0.2 -7.79,0.29 -4.36,0.79 -8.63,1.88 -12.84,3.37l-6.07 2.05 0 22.08 -0.04 0 0 3.48c-0.56,1.81 -2.15,3.61 -3.38,5.04 1.87,1.54 3.33,2.05 3.41,4.6l0.01 0 0 0.18c0,0.01 0,0.01 0,0.02l0 9.2 0 19.04 8.75 -2.14 0.75 -0.23 0 -8.87 0 -9.19c0,-0.01 0,-0.02 0,-0.02l0 -0.19 -0.01 0.01c-0.07,-2.54 -1.22,-2.79 -2.68,-4.01 0.96,-1.64 2.21,-3.71 2.65,-5.63l0 -3.47 0.04 -0.02 0 -22.07 4.78 -3.11c3.31,-2.23 6.67,-4.07 10.1,-5.61 3.37,-1.52 6.44,-2 9.06,-1.46 -1.55,0.23 -3.3,1.25 -5.2,3.02 -2.28,2.15 -4.52,4.58 -6.72,7.39l-3.18 3.94 0 22.08 -0.03 0.02 0 3.47c-0.29,2 -1.12,4.29 -1.77,6.1 0.98,0.96 1.75,1.01 1.79,3.54l0.01 -0.01 0 0.18c0,0.01 0,0.02 0,0.03l0 9.19 0 19.05 4.58 -4.88 3.36 -3.97c5.46,-6.44 10.3,-15.3 12.49,-26.56 1.31,-6.69 1.79,-12.94 1.76,-18.97 0.26,-1.18 0.77,-2.58 1.21,-3.75 -0.36,-0.61 -1.26,-0.71 -1.26,-1.91zm-9.07 28.48c-1.01,2.68 -2.28,5.08 -3.63,7.2l0 -15.39c0.35,-1.53 0.78,-3.01 1.3,-4.57 -0.49,-0.04 -1.01,-0.17 -1.32,-0.69l0.02 -14.11c2.18,-3.78 4.02,-5.52 5.01,-3.99 1.12,1.74 1.05,5.66 1.03,9.32l-1.22 4.17c0.34,0.17 1.05,-0.19 1.13,0.55 0.39,3.58 0.09,11.15 -2.32,17.51z"/>
 </g>
</svg>
