<?xml version="1.0" encoding="UTF-8"?>
<!DOCTYPE svg PUBLIC "-//W3C//DTD SVG 1.1//EN" "http://www.w3.org/Graphics/SVG/1.1/DTD/svg11.dtd">
<!-- Creator: CorelDRAW 2018 (64 Bit Versão de avaliação) -->
<svg xmlns="http://www.w3.org/2000/svg" xml:space="preserve" width="32px" height="32px" version="1.1" style="shape-rendering:geometricPrecision; text-rendering:geometricPrecision; image-rendering:optimizeQuality; fill-rule:evenodd; clip-rule:evenodd"
viewBox="0 0 7.01 7.01"
 xmlns:xlink="http://www.w3.org/1999/xlink">
 <defs>
  <style type="text/css">
   <![CDATA[
    .fil1 {fill:#FEFEFE;fill-rule:nonzero}
    .fil0 {fill:#222124;fill-rule:nonzero}
   ]]>
  </style>
 </defs>
 <g id="Camada_x0020_1">
  <metadata id="CorelCorpID_0Corel-Layer"/>
  <g id="_2262525695840">
   <path class="fil0" d="M7.01 3.51c0,1.93 -1.57,3.5 -3.5,3.5 -1.94,0 -3.51,-1.57 -3.51,-3.5 0,-1.94 1.57,-3.51 3.51,-3.51 1.93,0 3.5,1.57 3.5,3.51z"/>
   <path class="fil1" d="M3.51 0.45c-1.69,0 -3.06,1.37 -3.06,3.06 0,1.68 1.37,3.05 3.06,3.05 1.68,0 3.05,-1.37 3.05,-3.05 0,-1.69 -1.37,-3.06 -3.05,-3.06zm0 6.22c-1.74,0 -3.16,-1.42 -3.16,-3.16 0,-1.74 1.42,-3.16 3.16,-3.16 1.74,0 3.16,1.42 3.16,3.16 0,1.74 -1.42,3.16 -3.16,3.16z"/>
   <path class="fil1" d="M4.6 4.35c-0.06,0.15 -0.13,0.28 -0.2,0.39l0 -0.83c0.02,-0.09 0.04,-0.17 0.07,-0.25 -0.03,0 -0.06,-0.01 -0.07,-0.04l0 -0.77c0.12,-0.2 0.22,-0.3 0.27,-0.22 0.06,0.1 0.06,0.31 0.06,0.51l-0.07 0.23c0.02,0.01 0.06,-0.01 0.06,0.03 0.02,0.19 0.01,0.61 -0.12,0.95zm0.49 -1.55c0,-0.25 -0.02,-0.48 -0.07,-0.67 -0.05,-0.17 -0.12,-0.27 -0.21,-0.3 -0.06,-0.04 -0.12,-0.08 -0.18,-0.1 -0.29,-0.22 -0.7,-0.34 -1.17,-0.34 -0.31,-0.01 -0.62,0.01 -0.92,0.04l-0.44 0.05 0 1.2 0 0 0 0.19c-0.04,0.1 -0.15,0.18 -0.24,0.24 0.13,0.11 0.24,0.15 0.24,0.29l0 0 0 0.01c0,0 0,0 0,0l0 0.5 0 1.04 0.25 -0.01 0 -0.67 0 -0.5c0,0 0,0 0,0l0 -0.01 0 0c-0.01,-0.14 -0.11,-0.18 -0.23,-0.26 0.08,-0.08 0.19,-0.17 0.22,-0.27l0 -0.19 0.01 0 0 -1.2 0.4 -0.1c0.28,-0.07 0.56,-0.12 0.85,-0.15 0.28,-0.03 0.52,-0.01 0.74,0.05 -0.13,-0.01 -0.27,-0.01 -0.43,0.02 -0.23,0.04 -0.47,0.1 -0.69,0.18l-0.34 0.11 0 1.21 0 0 0 0.18c-0.03,0.1 -0.11,0.2 -0.18,0.28 0.1,0.08 0.18,0.11 0.18,0.25l0 0 0 0.01c0,0 0,0 0,0l0 0.5 0 1.04 0.48 -0.12 0.04 -0.01 0 -0.48 0 -0.5c0,0 0,0 0,-0.01l0 -0.01 0 0.01c0,-0.14 -0.06,-0.16 -0.14,-0.22 0.05,-0.09 0.12,-0.21 0.14,-0.31l0 -0.19 0 0 0 -1.2 0.26 -0.17c0.18,-0.12 0.37,-0.22 0.55,-0.31 0.19,-0.08 0.35,-0.11 0.5,-0.08 -0.09,0.02 -0.18,0.07 -0.29,0.17 -0.12,0.12 -0.24,0.25 -0.36,0.4l-0.18 0.22 0 1.2 0 0 0 0.19c-0.01,0.11 -0.06,0.23 -0.09,0.33 0.05,0.05 0.09,0.06 0.09,0.19l0 0 0 0.01c0,0 0,0 0,0l0 0.5 0 1.04 0.25 -0.26 0.19 -0.22c0.29,-0.35 0.56,-0.83 0.68,-1.45 0.07,-0.36 0.09,-0.7 0.09,-1.03 0.02,-0.06 0.04,-0.14 0.07,-0.2 -0.02,-0.04 -0.07,-0.04 -0.07,-0.11z"/>
  </g>
 </g>
</svg>
