<?xml version="1.0" encoding="UTF-8"?>
<!DOCTYPE svg PUBLIC "-//W3C//DTD SVG 1.1//EN" "http://www.w3.org/Graphics/SVG/1.1/DTD/svg11.dtd">
<!-- Creator: CorelDRAW 2018 (64 Bit Versão de avaliação) -->
<svg xmlns="http://www.w3.org/2000/svg" xml:space="preserve" width="96px" height="96px" version="1.1" style="shape-rendering:geometricPrecision; text-rendering:geometricPrecision; image-rendering:optimizeQuality; fill-rule:evenodd; clip-rule:evenodd"
viewBox="0 0 13.81 13.81"
 xmlns:xlink="http://www.w3.org/1999/xlink">
 <defs>
  <style type="text/css">
   <![CDATA[
    .fil0 {fill:#FEFEFE}
   ]]>
  </style>
 </defs>
 <g id="Camada_x0020_1">
  <metadata id="CorelCorpID_0Corel-Layer"/>
  <path class="fil0" d="M6.9 0c3.81,0 6.91,3.09 6.91,6.9 0,3.81 -3.1,6.91 -6.91,6.91 -3.81,0 -6.9,-3.1 -6.9,-6.91 0,-3.81 3.09,-6.9 6.9,-6.9zm4.39 2.52c-1.12,-1.12 -2.67,-1.82 -4.39,-1.82 -1.71,0 -3.26,0.7 -4.38,1.82 -1.12,1.12 -1.82,2.67 -1.82,4.38 0,1.72 0.7,3.27 1.82,4.39 1.12,1.12 2.67,1.81 4.38,1.81 1.72,0 3.27,-0.69 4.39,-1.81 1.12,-1.12 1.81,-2.67 1.81,-4.39 0,-1.71 -0.69,-3.26 -1.81,-4.38zm-4.39 -1.46c3.26,0 5.9,2.61 5.9,5.84 0,3.23 -2.64,5.85 -5.9,5.85 -3.26,0 -5.9,-2.62 -5.9,-5.85 0,-3.23 2.64,-5.84 5.9,-5.84zm3.11 4.02c0,-0.5 -0.02,-0.96 -0.13,-1.33 -0.1,-0.33 -0.24,-0.52 -0.42,-0.58 -0.11,-0.08 -0.22,-0.15 -0.34,-0.21 -0.58,-0.43 -1.38,-0.66 -2.3,-0.67 -0.62,0 -1.23,0.03 -1.82,0.1l-0.86 0.09 0 2.37 -0.01 0 0 0.37c-0.08,0.18 -0.3,0.34 -0.47,0.47 0.26,0.2 0.47,0.29 0.48,0.56l0 0 0 0.02c0,0 0,0 0,0l0 0.99 0 2.04 0.48 -0.02 0 -1.32 0 -0.98c0,0 0,0 0,0l0 -0.02 0 0c-0.01,-0.28 -0.21,-0.34 -0.45,-0.51 0.16,-0.15 0.37,-0.34 0.44,-0.53l0 -0.37 0.01 0 0 -2.37 0.79 -0.18c0.55,-0.14 1.11,-0.24 1.68,-0.3 0.54,-0.06 1.03,-0.02 1.45,0.1 -0.26,-0.03 -0.54,-0.02 -0.84,0.03 -0.46,0.08 -0.92,0.2 -1.37,0.36l-0.65 0.22 0 2.36 -0.01 0.01 0 0.37c-0.06,0.19 -0.23,0.38 -0.36,0.54 0.2,0.16 0.36,0.22 0.37,0.49l0 0 0 0.02c0,0 0,0 0,0l0 0.99 0 2.04 0.94 -0.23 0.08 -0.03 0 -0.95 0 -0.98c0,0 0,0 0,0l0 -0.02 -0.01 0c0,-0.27 -0.13,-0.3 -0.28,-0.43 0.1,-0.18 0.23,-0.4 0.28,-0.61l0 -0.37 0.01 0 0 -2.36 0.51 -0.34c0.35,-0.24 0.71,-0.43 1.08,-0.6 0.36,-0.16 0.69,-0.21 0.97,-0.15 -0.17,0.02 -0.35,0.13 -0.56,0.32 -0.24,0.23 -0.48,0.49 -0.72,0.79l-0.34 0.42 0 2.37 0 0 0 0.37c-0.03,0.22 -0.12,0.46 -0.19,0.66 0.1,0.1 0.19,0.1 0.19,0.37l0 0 0 0.02c0,0 0,0.01 0,0.01l0 0.98 0 2.04 0.49 -0.52 0.36 -0.43c0.59,-0.69 1.11,-1.63 1.34,-2.84 0.14,-0.72 0.19,-1.39 0.19,-2.03 0.03,-0.13 0.08,-0.28 0.13,-0.41 -0.04,-0.06 -0.14,-0.07 -0.14,-0.2zm-0.97 3.05c-0.11,0.29 -0.24,0.55 -0.39,0.77l0 -1.65c0.04,-0.16 0.09,-0.32 0.14,-0.49 -0.05,0 -0.1,-0.01 -0.14,-0.07l0 -1.51c0.24,-0.41 0.44,-0.59 0.54,-0.43 0.12,0.19 0.11,0.61 0.11,1l-0.13 0.45c0.04,0.01 0.11,-0.02 0.12,0.06 0.04,0.38 0.01,1.19 -0.25,1.87z"/>
 </g>
</svg>
